<svg xmlns="http://www.w3.org/2000/svg" xmlns:xlink="http://www.w3.org/1999/xlink" xml:space="preserve" version="1.1" viewBox="0 0 190.497 190.497"><defs><linearGradient id="f"><stop offset="0" stop-color="#b2f219" stop-opacity="1"/><stop offset="1" stop-color="#b2f219" stop-opacity="0"/></linearGradient><linearGradient id="e"><stop offset="0" stop-color="#b2f219" stop-opacity="1"/><stop offset="1" stop-color="#b2f219" stop-opacity="0"/></linearGradient><linearGradient id="d"><stop offset="0" stop-color="#f7f7c4" stop-opacity="1"/><stop offset="1" stop-color="#fefef2" stop-opacity="1"/></linearGradient><linearGradient id="c"><stop offset="0" stop-color="#b2f219" stop-opacity="1"/><stop offset="1" stop-color="#b2f219" stop-opacity="0"/></linearGradient><linearGradient id="b"><stop offset="0" stop-color="#b2f219" stop-opacity="1"/><stop offset="1" stop-color="#b2f219" stop-opacity="0"/></linearGradient><linearGradient id="a"><stop offset="0" stop-color="#b2f219" stop-opacity="1"/><stop offset="1" stop-color="#b2f219" stop-opacity="0"/></linearGradient><linearGradient xlink:href="#a" id="g" x1="144.293" x2="173.668" y1="121.683" y2="228.172" gradientUnits="userSpaceOnUse"/><linearGradient xlink:href="#b" id="i" x1="101.344" x2="35.929" y1="171.075" y2="79.962" gradientUnits="userSpaceOnUse"/><linearGradient xlink:href="#c" id="t" x1="81.953" x2="97.606" y1="87.438" y2="112.669" gradientUnits="userSpaceOnUse"/><linearGradient xlink:href="#d" id="h" x1="141.714" x2="115.782" y1="190.05" y2="159.678" gradientUnits="userSpaceOnUse"/><linearGradient xlink:href="#e" id="s" x1="122.289" x2="140.786" y1="82.268" y2="73.884" gradientUnits="userSpaceOnUse"/><linearGradient xlink:href="#f" id="u" x1="126.276" x2="125.742" y1="86.488" y2="85.88" gradientUnits="userSpaceOnUse"/><linearGradient xlink:href="#b" id="j" x1="101.344" x2="35.929" y1="171.075" y2="79.962" gradientUnits="userSpaceOnUse"/><linearGradient xlink:href="#b" id="k" x1="101.344" x2="35.929" y1="171.075" y2="79.962" gradientUnits="userSpaceOnUse"/><linearGradient xlink:href="#b" id="l" x1="101.344" x2="35.929" y1="171.075" y2="79.962" gradientUnits="userSpaceOnUse"/><linearGradient xlink:href="#b" id="m" x1="101.344" x2="35.929" y1="171.075" y2="79.962" gradientUnits="userSpaceOnUse"/><linearGradient xlink:href="#b" id="n" x1="101.344" x2="35.929" y1="171.075" y2="79.962" gradientUnits="userSpaceOnUse"/><linearGradient xlink:href="#b" id="o" x1="101.344" x2="35.929" y1="171.075" y2="79.962" gradientUnits="userSpaceOnUse"/><linearGradient xlink:href="#b" id="p" x1="101.344" x2="35.929" y1="171.075" y2="79.962" gradientUnits="userSpaceOnUse"/><linearGradient xlink:href="#b" id="q" x1="101.344" x2="35.929" y1="171.075" y2="79.962" gradientUnits="userSpaceOnUse"/><linearGradient xlink:href="#b" id="r" x1="101.344" x2="35.929" y1="171.075" y2="79.962" gradientUnits="userSpaceOnUse"/></defs><g fill-opacity="1" stroke-linecap="round" stroke-linejoin="round" display="inline" transform="translate(-8.43 -51.85)"><ellipse fill="#123e1f" cx="105.103" cy="160.955" display="inline" paint-order="normal" rx="83.063" ry="81.008"/><ellipse fill="url(#g)" cx="105.915" cy="160.497" display="inline" rx="77.499" ry="75.533"/><ellipse fill="#123e1f" cx="95.707" cy="163.231" display="inline" paint-order="normal" rx="72.715" ry="72.482"/><ellipse fill="url(#h)" cx="95.497" cy="163.316" display="inline" paint-order="normal" rx="66.781" ry="66.492"/></g><g fill="url(#i)" fill-opacity="1" stroke-linecap="round" stroke-linejoin="round" display="inline" transform="translate(-8.43 -51.85)"><path d="M109.25 104.596c-3.33-.03-4.702.993-5.345 3.796-.642 2.803-8.455 42.17-8.455 42.17s-.86 3.978.701 4.467c.84.263 1.519.73 5.082-3.329 3.562-4.059 28.27-28.345 28.27-28.345s3.169-3.496 3.065-5.374c-.103-1.879-.7-2.843-3.52-5.104-3.198-2.566-15.842-8.247-19.799-8.281z" fill="url(#j)" display="inline"/><path d="M141.798 123.666c-3.018-1.738-4.857-1.634-7.057.258-2.2 1.891-32.571 29.369-32.571 29.369-6.387 6.064-.537 5.73 5.13 4.334 5.585-1.383 37.215-13.024 37.215-13.024s4.901-1.767 5.888-3.31c.988-1.542.998-2.614-.27-5.858-1.47-4.68-4.227-8.939-8.335-11.77z" fill="url(#k)" display="inline"/><path d="M154.367 150.485c-1.61-2.914-3.175-3.607-5.932-2.79-2.758.819-41.918 11.51-45.965 13.652-1.238.654-3.078 1.417-2.965 2.75.138 1.63.494 2.424 5.78 3.532 5.287 1.109 41.787 9.547 41.787 9.547s4.974 1.167 6.559.154c1.586-1.013 1.966-1.966 2.55-5.532.663-4.047.1-17.85-1.814-21.313z" fill="url(#l)" display="inline"/><path d="M148.768 181.25c-1.3-.854-35.451-8.707-42.724-10.802-9.22-2.655-10.589.536-6.715 5.574 6.125 7.965 16.296 30.733 25.277 37.669 7.111 5.491 34.266-25.804 24.162-32.44z" fill="url(#m)" display="inline"/><path d="M98.69 223.444c4.083.027 10.54.16 15.198-1.536 5.792-2.11 5.24-4.078 3.345-8.335-5.023-11.278-20.438-38.31-20.438-38.31-2.232-4.872-4.736-6.325-9.154 2.543-1.298 2.605-7.504 14.98-11.388 25.57-4.703 12.821-4.454 13.874 2.23 16.35 6.734 2.494 18.569 3.707 20.207 3.718z" fill="url(#n)" display="inline"/><path d="M87.201 169.802c-1.904-5.364-43.365 9.648-43.365 9.648-4.194 1.964-5.24 3.757-2.272 9.756 1.725 3.485 9.373 13.86 15.959 19.642 7.536 6.616 9.824 5.348 12.573-.136 6.85-13.666 18.445-35.133 17.105-38.91z" fill="url(#o)" display="inline"/><path d="M35.54 171.79c1.405 3.186 2.95 4.19 5.842 3.965 2.892-.224 36.333-8.506 36.333-8.506 9.146-.47 4.238-5.992-1.574-6.53-5.964-.552-30.41-7.419-30.41-7.419-7.95-1.867-9.768-.263-11.004 3.953-1.38 4.707-.827 9.825.812 14.537z" fill="url(#p)" display="inline"/><path d="M84.68 158.966c5.273-2.145-12.6-38.156-12.6-38.156-4.307-12.732-14.489-4.989-14.489-4.989-4.066 2.16-12.233 11.593-16.327 19.417-4.842 9.252-2.512 11.508 3.186 13.778 14.003 5.58 36.518 11.46 40.23 9.95z" fill="url(#q)" display="inline"/><path d="M79.185 105.985c-3.091 1.603-5.222 2.943-4.415 5.73 1.248 4.305 7.81 30.437 13.335 39.459 1.725 2.816 3.845 2.969 5.086-.456 2.026-5.589 5.262-38.234 5.262-38.234 1.11-7.248 1.284-8.513-4.905-9.11-5.492-.528-9.763.68-14.363 2.611z" fill="url(#r)" display="inline"/></g><g fill-opacity="1" display="inline" transform="translate(-8.43 -51.85)"><path d="M84.667 174.634s3.407 2.427 7.661 2.427c4.337 0 8.201-2.761 8.201-2.761" fill="none" stroke="#123e1f" stroke-dasharray="none" stroke-linecap="round" stroke-opacity="1" stroke-width="5.9" display="inline"/><g display="inline" transform="translate(-3.388 .35)"><circle fill="#123e1f" cx="123.749" cy="164.615" r="10.893" display="inline"/><circle fill="#fff" cx="122.264" cy="161.06" r="3.446" display="inline" paint-order="normal"/></g><circle fill="#123e1f" cx="70.985" cy="164.965" r="10.077" display="inline"/><circle fill="#fff" cx="69.421" cy="161.406" r="2.976" display="inline" paint-order="normal"/></g><g fill-opacity="1" stroke-linecap="round" stroke-linejoin="round" stroke-width="1" display="inline"><path d="M101.902 28.606s-2.964-.298 1.867-.152c1.948.059 1.567-4.906 1.9-8.609.683-9.827-.484-18.607 11.295-18.343 12.48.28 6.978 15.772 4.395 25.03-.73 2.617-1.106 4.91 1.005 5.546 2.631.794-.26 2.396-.814.337" fill="#123e1f" display="inline"/><path d="M112.605 85.195c.234-.119 1.627-.78 3.442-5.524 2.086-5.448-1.498-23.062 7.338-23.163 11.169-.128 5.584 9.44 3.493 16.978-1.759 7.28-2.744 11.78.865 14.089.668.427 4.084 1.527 5.603 2.56 2.316 1.574-22.388-.051-22.388-.051s-.576-3.588.702-4.702c.196-.17.754-.1.945-.187z" fill="url(#s)" display="inline" transform="translate(-8.43 -51.85)"/><path d="M106.735 9.95S96.658 2.847 79.56 2.682c-17.098-.165-30.396 8.838-38.49 15.611-8.095 6.773-14.869 19.08-18.255 29.405-3.387 10.325-6.03 23.293-6.195 24.45-.165 1.156-.842 3.453.991 5.285 2.044 2.044 40.224.858 62.445-16.684 7.846-6.195 14.62-15.777 14.62-15.777s7.664-14.127 10.077-27.34c.21-1.152 2.845-.489 2.747.289-1.42 11.277 2.199 2.203-.765-7.97z" fill="#123e1f" display="inline"/><path d="M106.693 65.076s-7.709-3.942-20.793-3.504c-14.72.493-26.907 8.408-34.284 16.12-7.46 7.798-12.613 16.944-15.76 31.623-2.96 13.8-4.42 14.165-4.296 14.248.124.082 31.43-1.902 50.48-15.15 19.342-13.451 23.391-30.166 24.296-38.314.415-3.732.357-5.023.357-5.023z" fill="url(#t)" display="inline" transform="translate(-8.43 -51.85)"/><path d="M98.998 12.883c-.826.26-13.539 1.797-20.299 3.76-3.174.922-6.756 2.24-10.772 3.685-21.238 7.644-31.89 28.21-32.824 30.664-.935 2.453.818 2.219.818 2.219s.467.117 3.68-3.68c13.69-16.71 30.081-29.28 51.93-31.168 16.093-1.392 5.257-.578 6.759-.772 6.605-.852.708-4.708.708-4.708z" fill="#123e1f" display="inline"/><path d="M54.42 28.471s-2.715-2.015-5.87-1.314c-3.153.701-4.642 3.65-4.321 4.351.321.701 5.753-.058 5.753-.058l1.781 1.49 3.388-2.687z" fill="#123e1f"/><path d="M60.932 26.537s2.349 2.316 2.326 5.547c-.008 1.188-.358 3.46-1.112 4.987-.828 1.676-2.084 2.505-2.508 1.22-.394-1.193-.21-3.736-1.082-7.176l-1.555-1.176 2.05-3.807zm17.233-9.731s-2.115-2.639-5.343-2.762c-3.229-.123-5.418 2.351-5.286 3.11.133.76 5.58 1.405 5.58 1.405l1.344 1.893 3.959-1.738zm2.692-.639s2.624 1.934 3.157 5.12c.339 2.022-.162 3.374-.57 4.633-.502 1.545-1.594 2.495-2.055 1.815-.677-.999-.974-3.793-2.03-6.809-.293-.876-1.858-.79-1.858-.79l3.464-1.873z" fill="#123e1f" display="inline"/><path d="M131.821 89.3c-.554-.266-3.393-1.258-4.23-1.852-.504-.358-.945-.765-1.255-1.169-.203-.265-.326-.537-.458-.767-.31-.536-1.652 2.05-1.652 2.05l7.134 2.008z" fill="url(#u)" transform="translate(-8.43 -51.85)"/></g></svg>