<?xml version="1.0" standalone="no"?>
<!DOCTYPE svg PUBLIC "-//W3C//DTD SVG 20010904//EN"
 "http://www.w3.org/TR/2001/REC-SVG-20010904/DTD/svg10.dtd">
<svg version="1.0" xmlns="http://www.w3.org/2000/svg"
 width="4096.000000pt" height="4096.000000pt" viewBox="0 0 4096.000000 4096.000000"
 preserveAspectRatio="xMidYMid meet">
<metadata>
Created by potrace 1.16, written by Peter Selinger 2001-2019
</metadata>
<g transform="translate(0.000000,4096.000000) scale(0.100000,-0.100000)"
fill="#000000" stroke="none">
<path d="M1006 33960 c4 -4 -114 -29 -153 -32 -7 -1 -10 -5 -7 -9 7 -12 -42
-23 -58 -13 -7 4 -10 4 -6 -1 7 -7 -54 -55 -71 -55 -5 0 -20 -9 -33 -20 -14
-10 -29 -16 -34 -12 -5 4 -6 3 -2 -2 7 -8 -38 -51 -54 -51 -5 0 -7 -3 -5 -6 3
-10 -34 -48 -45 -46 -6 1 -12 -6 -13 -16 -5 -26 -25 -48 -38 -40 -6 3 -7 1 -3
-5 4 -7 3 -12 -1 -12 -5 0 -9 -9 -10 -19 -2 -24 -32 -71 -45 -71 -5 0 -6 -4
-3 -10 3 -5 1 -10 -5 -10 -6 0 -8 -5 -5 -10 9 -15 -26 -101 -38 -93 -6 4 -8
-4 -5 -21 3 -14 1 -26 -3 -26 -5 0 -9 -905 -9 -2011 0 -1120 4 -2008 9 -2005
4 3 6 -6 3 -19 -3 -19 0 -25 13 -25 13 0 16 -6 13 -25 -3 -13 -2 -22 3 -20 10
7 21 -28 14 -46 -3 -8 2 -23 11 -34 8 -11 12 -14 8 -6 -5 10 -3 12 5 7 7 -5
10 -15 7 -23 -3 -8 -2 -11 3 -8 14 8 29 -24 23 -49 -3 -12 -1 -18 3 -13 11 10
45 -22 45 -42 0 -21 90 -111 111 -111 20 0 51 -34 42 -45 -5 -4 1 -6 13 -3 25
6 57 -9 49 -23 -3 -5 0 -6 8 -3 8 3 18 0 23 -7 5 -8 3 -10 -7 -5 -8 4 -5 1 5
-8 10 -8 23 -13 28 -10 13 8 60 -5 54 -15 -3 -4 6 -6 19 -3 19 3 25 0 25 -13
0 -13 6 -16 25 -13 13 3 22 2 20 -2 -3 -4 5669 -10 12603 -14 12003 -6 17527
-17 17747 -36 216 -18 593 -101 817 -181 815 -286 1263 -840 1458 -1804 33
-163 54 -330 44 -346 -3 -6 -1 -14 5 -18 40 -25 40 -1127 0 -1152 -6 -4 -8
-12 -5 -18 16 -25 -38 -350 -91 -551 -104 -394 -242 -687 -446 -943 -165 -208
-335 -348 -592 -490 -275 -152 -534 -235 -985 -317 -162 -30 -175 -31 -680
-42 -372 -8 -4568 -11 -15150 -12 -10825 -1 -14638 -4 -14645 -12 -5 -6 -51
-17 -102 -25 -53 -7 -91 -17 -90 -23 1 -6 -8 -11 -20 -10 -12 0 -20 -3 -17 -7
5 -9 -28 -21 -47 -17 -7 2 -13 -4 -14 -12 0 -8 -8 -14 -18 -14 -9 1 -15 -1
-13 -5 2 -3 -8 -15 -22 -25 -16 -12 -22 -14 -17 -5 4 8 -7 -3 -24 -23 -18 -21
-36 -37 -41 -35 -4 1 -9 -2 -10 -8 -2 -16 -31 -44 -42 -42 -6 1 -12 -7 -14
-17 -1 -11 -13 -29 -25 -40 -21 -20 -22 -20 -8 -1 13 19 13 19 -4 6 -10 -8
-16 -19 -14 -25 6 -18 -34 -87 -46 -79 -6 4 -8 0 -4 -10 3 -9 1 -22 -6 -29 -7
-7 -13 -26 -14 -43 -1 -16 -10 -35 -19 -42 -10 -7 -14 -20 -11 -33 3 -11 1
-20 -4 -20 -5 0 -9 -813 -9 -1965 0 -1081 -1 -1969 -1 -1973 -5 -30 3 -82 11
-77 6 3 7 -1 4 -9 -3 -9 2 -23 11 -32 9 -9 14 -25 12 -36 -3 -10 -1 -16 4 -13
10 7 24 -40 15 -53 -3 -5 2 -18 10 -28 9 -10 13 -12 9 -4 -4 8 3 4 14 -10 11
-14 21 -38 21 -53 0 -16 4 -26 9 -22 11 6 53 -44 46 -55 -2 -4 5 -16 18 -26
l22 -19 -20 25 c-11 14 0 7 23 -15 44 -41 58 -62 19 -29 l-22 19 19 -22 c10
-12 22 -21 26 -20 15 4 70 -44 64 -55 -5 -7 0 -9 13 -6 26 7 56 -9 47 -25 -4
-7 -4 -9 0 -5 4 3 16 -2 27 -13 11 -11 24 -17 30 -13 14 8 61 -5 54 -15 -3 -5
4 -7 15 -4 13 3 22 -1 26 -11 3 -9 18 -16 33 -17 14 0 6823 -5 15131 -10
l15105 -9 135 -21 c742 -115 1179 -282 1546 -593 348 -295 606 -799 728 -1421
32 -165 50 -301 42 -322 -4 -9 -2 -19 4 -23 40 -24 38 -1126 -2 -1151 -6 -4
-7 -12 -4 -18 10 -15 -9 -169 -40 -321 -90 -452 -231 -804 -437 -1095 -271
-381 -673 -639 -1227 -789 -198 -53 -437 -102 -448 -92 -3 3 -10 1 -17 -4 -6
-5 -43 -14 -81 -20 -143 -22 -2096 -30 -5887 -24 -2674 5 -3821 4 -3825 -3 -5
-8 -3103 -12 -10324 -14 -5674 -2 -10315 -7 -10312 -10 2 -4 -31 -10 -73 -14
-58 -6 -83 -12 -97 -27 -11 -11 -26 -18 -37 -15 -11 3 -17 1 -13 -4 5 -9 -8
-13 -37 -10 -9 1 -19 -8 -22 -20 -4 -15 -11 -20 -22 -15 -9 3 -14 2 -11 -3 5
-8 -16 -23 -36 -25 -3 -1 -10 -5 -15 -10 -5 -5 -2 -6 7 -2 8 5 2 -3 -15 -17
-16 -14 -33 -23 -36 -21 -4 2 -12 -3 -19 -11 -7 -8 -9 -15 -5 -15 4 0 2 -7 -5
-15 -7 -8 -16 -13 -20 -10 -9 6 -23 -12 -27 -34 -1 -8 -12 -24 -24 -35 -21
-20 -22 -20 -8 -1 13 18 13 19 -4 6 -9 -7 -17 -22 -17 -33 0 -20 -27 -78 -36
-78 -3 0 -2 5 2 12 4 7 3 8 -5 4 -6 -4 -10 -13 -9 -19 4 -18 -23 -107 -35
-114 -6 -4 -7 -1 -2 7 6 9 4 11 -4 5 -8 -4 -11 -20 -9 -36 3 -16 1 -29 -4 -29
-11 0 -10 -3997 1 -4004 5 -4 7 -15 4 -26 -3 -11 -1 -20 4 -20 11 0 43 -77 46
-109 0 -11 5 -17 11 -14 6 4 6 -1 2 -13 -4 -10 -4 -15 0 -11 11 11 43 -43 36
-61 -3 -10 -1 -13 6 -8 7 4 21 -9 36 -31 25 -40 101 -117 133 -137 69 -41 92
-59 86 -69 -3 -6 -1 -7 6 -3 6 4 22 1 34 -7 12 -7 35 -17 50 -21 15 -3 26 -10
23 -14 -2 -4 14 -8 35 -9 22 0 47 -7 56 -15 19 -15 66 -15 18181 -8 6591 2
11986 8 11988 12 3 4 157 8 342 8 375 0 703 12 962 35 94 8 176 12 182 9 6 -4
13 -2 17 3 7 12 414 55 437 46 9 -3 19 -1 23 5 8 13 331 55 354 46 10 -3 17
-2 17 4 0 5 17 12 38 15 505 74 1002 173 1378 273 52 14 98 23 103 19 5 -3 11
-1 13 3 4 12 188 63 199 56 5 -3 9 -1 9 4 0 5 35 19 77 32 217 62 608 200 863
303 189 77 186 75 400 172 129 58 515 255 598 304 26 15 115 68 197 117 608
360 1156 817 1646 1374 181 206 395 494 559 755 45 72 86 129 92 127 5 -1 7 2
4 7 -4 5 26 65 64 133 196 341 407 814 543 1218 150 447 274 977 347 1485 12
82 26 153 32 156 6 4 8 11 4 17 -7 12 35 456 44 460 4 1 4 41 2 87 -3 47 0 91
4 97 11 16 10 1465 -1 1491 -4 10 -5 56 -2 102 2 46 2 85 -2 87 -10 4 -52 438
-44 451 3 5 1 12 -5 16 -6 3 -20 74 -31 156 -63 438 -187 990 -308 1370 -308
965 -780 1796 -1396 2460 -62 66 -121 130 -131 143 l-19 22 94 97 c327 341
603 716 874 1188 87 152 261 496 310 615 147 355 235 598 319 885 98 338 205
835 256 1200 12 82 26 152 32 156 6 4 8 11 4 17 -7 12 36 456 45 460 3 1 4 38
1 82 -2 43 -1 87 3 97 11 26 12 1475 1 1491 -4 6 -7 50 -4 97 2 46 2 86 -1 87
-9 4 -52 448 -45 460 4 6 2 13 -4 17 -6 4 -22 85 -36 181 -56 385 -146 802
-252 1170 -14 46 -22 91 -19 99 3 9 3 12 -1 8 -4 -4 -35 75 -69 175 -276 817
-635 1477 -1149 2113 -195 241 -570 628 -801 826 -515 441 -1134 829 -1819
1139 -231 105 -623 260 -818 325 -31 10 -54 23 -51 29 4 5 0 7 -9 4 -9 -4 -78
14 -154 38 -200 64 -493 146 -689 194 -93 22 -204 49 -245 59 -41 11 -128 29
-192 42 -65 12 -118 27 -118 31 0 5 -4 6 -10 3 -13 -8 -254 35 -261 47 -4 6
-12 8 -17 4 -6 -4 -96 7 -199 23 -315 51 -951 133 -1248 161 -245 23 -703 30
-2755 40 -2109 11 -28693 29 -28684 20z"/>
</g>
</svg>
